# xmcd
#
# Track frame offsets:
#	150
#	18734
#	38174
#	55867
#	74397
#	95413
#	111328
#	127557
#	146431
#	164006
#	184570
#	203256
#	217449
#	235386
#	255277
#	273376
#	291257
#	305998
#
# Disc length: 4352 seconds
#
# Revision: 1
# Processed by: cddbd v1.5.2PL0 Copyright (c) Steve Scherf et al.
# Submitted via: audiograbber 1.83.01
#
DISCID=0f10fe12
DTITLE=Various Artist - Nu Urban Traxx 026
DYEAR=2001
DGENRE=Rap
TTITLE0=Usher - U Got It Bad
TTITLE1=Alicia Keys - A Wona's Worth
TTITLE2=Destiny's Child - Emotion
TTITLE3=Blaque - Can't Get It Back
TTITLE4=Nelly Furtado Ft Ms Jade and Timbaland - Turn Off The Light
TTITLE5=City High Ft Eve - Caramel (Video Version)
TTITLE6=Rayvon Ft Shaggy, Rik Rok Ducent, Brian and Tony Gold - 2-Way
TTITLE7=D-12 - Fight Music
TTITLE8=Ludacris, Ll Cool J and Keith Murray - Fatty Girl
TTITLE9=Olivia - It's On Again
TTITLE10=Dream Ft Kain - This Is Me (Remix)
TTITLE11=Jermaine Dupri Ft Nate Dogg - Ballin' Out Of Control
TTITLE12=Ray J - Formal Invite
TTITLE13=Mr. Cheeks - Lights, Camera, Action!
TTITLE14=Dmx - We Right Here
TTITLE15=Nate Dogg - I Got Love
TTITLE16=Jimmy Cozier - So Much To Lose
TTITLE17=Juvenile - From Her Mama (Mama Got A$$)
EXTD=
EXTT0=
EXTT1=
EXTT2=
EXTT3=
EXTT4=
EXTT5=
EXTT6=
EXTT7=
EXTT8=
EXTT9=
EXTT10=
EXTT11=
EXTT12=
EXTT13=
EXTT14=
EXTT15=
EXTT16=
EXTT17=
PLAYORDER=
